<svg id="visual" viewBox="0 0 900 600" width="900" height="600" xmlns="http://www.w3.org/2000/svg" xmlns:xlink="http://www.w3.org/1999/xlink" version="1.1"><rect x="0" y="0" width="900" height="600" fill="#0f1011"></rect><path d="M0 423L21.5 433.5C43 444 86 465 128.8 459.8C171.7 454.7 214.3 423.3 257.2 427.2C300 431 343 470 385.8 477.8C428.7 485.7 471.3 462.3 514.2 457.2C557 452 600 465 642.8 462.5C685.7 460 728.3 442 771.2 429.5C814 417 857 410 878.5 406.5L900 403L900 601L878.5 601C857 601 814 601 771.2 601C728.3 601 685.7 601 642.8 601C600 601 557 601 514.2 601C471.3 601 428.7 601 385.8 601C343 601 300 601 257.2 601C214.3 601 171.7 601 128.8 601C86 601 43 601 21.5 601L0 601Z" fill="#313439" stroke-linecap="round" stroke-linejoin="miter"></path></svg>